<svg xmlns="http://www.w3.org/2000/svg" xmlns:xlink="http://www.w3.org/1999/xlink" width="1080" zoomAndPan="magnify" viewBox="0 0 810 1012.49997" height="1350" preserveAspectRatio="xMidYMid meet" version="1.0"><defs><clipPath id="a76be429ac"><path d="M 245 354 L 566 354 L 566 659.382812 L 245 659.382812 Z M 245 354 " clip-rule="nonzero"/></clipPath></defs><g clip-path="url(#a76be429ac)"><path fill="#ffffff" d="M 562.363281 358.757812 C 557.503906 353.289062 549.164062 352.785156 543.695312 357.644531 C 522.730469 376.210938 503.457031 395.320312 484.347656 415.203125 C 465.375 435.085938 446.878906 455.441406 429.152344 476.507812 C 402.585938 507.765625 377.4375 540.378906 353.703125 574.203125 L 268.027344 482.078125 C 263.90625 477.621094 257.089844 476.4375 251.621094 479.613281 C 245.273438 483.292969 243.113281 491.429688 246.792969 497.773438 C 246.792969 497.773438 328.488281 638.679688 331.863281 644.488281 C 335.273438 650.292969 342.5625 659.207031 357.855469 659.207031 C 372.574219 659.207031 380.710938 650.53125 385.605469 641.347656 C 390.535156 632.03125 435.804688 548.140625 465.34375 503.816406 C 480.027344 481.570312 495.554688 459.863281 511.625 438.527344 C 527.695312 417.296875 544.605469 396.164062 562.027344 376.648438 L 562.328125 376.3125 C 566.753906 371.382812 566.886719 363.820312 562.363281 358.757812 Z M 562.363281 358.757812 " fill-opacity="1" fill-rule="nonzero"/></g></svg>