<svg xmlns="http://www.w3.org/2000/svg" xmlns:xlink="http://www.w3.org/1999/xlink" width="1080" zoomAndPan="magnify" viewBox="0 0 810 1012.49997" height="1350" preserveAspectRatio="xMidYMid meet" version="1.0"><defs><clipPath id="01efb1c9aa"><path d="M 296.476562 373.246094 L 513.867188 373.246094 L 513.867188 638.617188 L 296.476562 638.617188 Z M 296.476562 373.246094 " clip-rule="nonzero"/></clipPath></defs><g clip-path="url(#01efb1c9aa)"><path fill="#ffffff" d="M 308.523438 437.832031 L 501.425781 437.832031 L 479.730469 618.917969 C 478.410156 630.023438 467.929688 638.371094 455.335938 638.371094 L 354.617188 638.371094 C 342.015625 638.371094 331.542969 630.023438 330.214844 618.917969 Z M 313.875 393.753906 L 371.027344 393.753906 L 371.027344 386.867188 C 371.027344 383.203125 372.523438 379.878906 374.929688 377.472656 C 377.335938 375.0625 380.65625 373.574219 384.324219 373.574219 L 425.628906 373.574219 C 429.289062 373.574219 432.613281 375.0625 435.019531 377.472656 C 437.429688 379.878906 438.921875 383.203125 438.921875 386.867188 L 438.921875 393.753906 L 496.078125 393.753906 C 500.847656 393.753906 505.191406 395.714844 508.339844 398.859375 L 508.359375 398.871094 L 508.367188 398.859375 C 511.515625 402.011719 513.472656 406.363281 513.472656 411.152344 L 513.472656 422.582031 C 513.472656 425.882812 510.796875 428.558594 507.503906 428.558594 L 302.441406 428.558594 C 299.148438 428.558594 296.476562 425.882812 296.476562 422.582031 L 296.476562 411.152344 C 296.476562 406.363281 298.425781 402.011719 301.578125 398.859375 C 301.710938 398.71875 301.847656 398.59375 301.992188 398.476562 C 305.109375 395.554688 309.292969 393.753906 313.875 393.753906 Z M 382.96875 393.753906 L 426.980469 393.753906 L 426.980469 386.867188 C 426.980469 386.503906 426.820312 386.164062 426.582031 385.917969 C 426.332031 385.671875 425.988281 385.515625 425.628906 385.515625 L 384.324219 385.515625 C 383.960938 385.515625 383.617188 385.671875 383.375 385.917969 C 383.125 386.164062 382.96875 386.503906 382.96875 386.867188 Z M 396.550781 459.054688 C 396.550781 454.042969 401.132812 449.988281 406.777344 449.988281 C 412.425781 449.988281 417.007812 454.042969 417.007812 459.054688 L 417.007812 617.15625 C 417.007812 622.164062 412.425781 626.214844 406.777344 626.214844 C 401.132812 626.214844 396.550781 622.164062 396.550781 617.15625 Z M 345.683594 459.511719 C 345.398438 454.523438 349.722656 450.277344 355.347656 450.027344 C 360.96875 449.769531 365.769531 453.601562 366.050781 458.59375 L 375.515625 616.691406 C 375.796875 621.675781 371.472656 625.929688 365.847656 626.179688 C 360.234375 626.429688 355.433594 622.59375 355.148438 617.609375 Z M 447.507812 458.59375 C 447.792969 453.601562 452.585938 449.769531 458.214844 450.027344 C 463.835938 450.277344 468.15625 454.523438 467.875 459.511719 L 458.410156 617.609375 C 458.125 622.59375 453.324219 626.429688 447.707031 626.179688 C 442.085938 625.929688 437.757812 621.675781 438.039062 616.691406 Z M 447.507812 458.59375 " fill-opacity="1" fill-rule="evenodd"/></g></svg>