<svg xmlns="http://www.w3.org/2000/svg" xmlns:xlink="http://www.w3.org/1999/xlink" width="1080" zoomAndPan="magnify" viewBox="0 0 810 1012.49997" height="1350" preserveAspectRatio="xMidYMid meet" version="1.0"><defs><clipPath id="506b9b5c22"><path d="M 0.652344 0.652344 L 723.347656 0.652344 L 723.347656 723.347656 L 0.652344 723.347656 Z M 0.652344 0.652344 " clip-rule="nonzero"/></clipPath><clipPath id="7795da2f5b"><path d="M 362 0.652344 C 162.433594 0.652344 0.652344 162.433594 0.652344 362 C 0.652344 561.566406 162.433594 723.347656 362 723.347656 C 561.566406 723.347656 723.347656 561.566406 723.347656 362 C 723.347656 162.433594 561.566406 0.652344 362 0.652344 Z M 362 0.652344 " clip-rule="nonzero"/></clipPath><clipPath id="2a62dfaa86"><path d="M 0.652344 0.652344 L 723.347656 0.652344 L 723.347656 723.347656 L 0.652344 723.347656 Z M 0.652344 0.652344 " clip-rule="nonzero"/></clipPath><clipPath id="366d143f89"><path d="M 362 0.652344 C 162.433594 0.652344 0.652344 162.433594 0.652344 362 C 0.652344 561.566406 162.433594 723.347656 362 723.347656 C 561.566406 723.347656 723.347656 561.566406 723.347656 362 C 723.347656 162.433594 561.566406 0.652344 362 0.652344 Z M 362 0.652344 " clip-rule="nonzero"/></clipPath><clipPath id="bc0a3f5379"><rect x="0" width="724" y="0" height="724"/></clipPath><clipPath id="9afcdcf025"><path d="M 362.640625 48.375 L 677 48.375 L 677 675 L 362.640625 675 Z M 362.640625 48.375 " clip-rule="nonzero"/></clipPath><clipPath id="9aac31f6b1"><rect x="0" width="724" y="0" height="724"/></clipPath></defs><g transform="matrix(1, 0, 0, 1, 43, 144)"><g clip-path="url(#9aac31f6b1)"><g clip-path="url(#506b9b5c22)"><g clip-path="url(#7795da2f5b)"><g><g clip-path="url(#bc0a3f5379)"><g clip-path="url(#2a62dfaa86)"><g clip-path="url(#366d143f89)"><path fill="#ffffff" d="M 0.652344 0.652344 L 723.347656 0.652344 L 723.347656 723.347656 L 0.652344 723.347656 Z M 0.652344 0.652344 " fill-opacity="1" fill-rule="nonzero"/></g></g></g></g></g></g><g clip-path="url(#9afcdcf025)"><path fill="#000000" d="M 676.488281 362.847656 C 677.164062 190.046875 537.964844 49.367188 365.339844 48.578125 L 362.640625 674.527344 C 535.148438 675.203125 675.703125 535.765625 676.488281 362.847656 Z M 676.488281 362.847656 " fill-opacity="1" fill-rule="nonzero"/></g></g></g></svg>