<svg xmlns="http://www.w3.org/2000/svg" xmlns:xlink="http://www.w3.org/1999/xlink" width="1080" zoomAndPan="magnify" viewBox="0 0 810 1012.49997" height="1350" preserveAspectRatio="xMidYMid meet" version="1.0"><defs><clipPath id="2822536da8"><path d="M 270.648438 371.648438 L 539.351562 371.648438 L 539.351562 640.351562 L 270.648438 640.351562 Z M 270.648438 371.648438 " clip-rule="nonzero"/></clipPath><clipPath id="47aeb4bcc1"><path d="M 405 371.648438 C 330.800781 371.648438 270.648438 431.800781 270.648438 506 C 270.648438 580.199219 330.800781 640.351562 405 640.351562 C 479.199219 640.351562 539.351562 580.199219 539.351562 506 C 539.351562 431.800781 479.199219 371.648438 405 371.648438 Z M 405 371.648438 " clip-rule="nonzero"/></clipPath><clipPath id="3de1ae9327"><path d="M 0.648438 0.648438 L 269.351562 0.648438 L 269.351562 269.351562 L 0.648438 269.351562 Z M 0.648438 0.648438 " clip-rule="nonzero"/></clipPath><clipPath id="d209e3ea76"><path d="M 135 0.648438 C 60.800781 0.648438 0.648438 60.800781 0.648438 135 C 0.648438 209.199219 60.800781 269.351562 135 269.351562 C 209.199219 269.351562 269.351562 209.199219 269.351562 135 C 269.351562 60.800781 209.199219 0.648438 135 0.648438 Z M 135 0.648438 " clip-rule="nonzero"/></clipPath><clipPath id="ceb905a134"><rect x="0" width="270" y="0" height="270"/></clipPath><clipPath id="8bec859f3c"><path d="M 405.238281 389.390625 L 522 389.390625 L 522 622.527344 L 405.238281 622.527344 Z M 405.238281 389.390625 " clip-rule="nonzero"/></clipPath></defs><path fill="#212121" d="M 405 640.933594 C 479.523438 640.933594 539.933594 580.523438 539.933594 506 C 539.933594 431.476562 479.523438 371.066406 405 371.066406 C 330.476562 371.066406 270.066406 431.476562 270.066406 506 C 270.066406 580.523438 330.476562 640.933594 405 640.933594 Z M 405 620.695312 L 405 391.308594 C 468.34375 391.308594 519.691406 442.65625 519.691406 506 C 519.691406 569.34375 468.34375 620.695312 405 620.695312 Z M 405 620.695312 " fill-opacity="1" fill-rule="nonzero"/><g clip-path="url(#2822536da8)"><g clip-path="url(#47aeb4bcc1)"><g transform="matrix(1, 0, 0, 1, 270, 371)"><g clip-path="url(#ceb905a134)"><g clip-path="url(#3de1ae9327)"><g clip-path="url(#d209e3ea76)"><path fill="#ffffff" d="M 0.648438 0.648438 L 269.351562 0.648438 L 269.351562 269.351562 L 0.648438 269.351562 Z M 0.648438 0.648438 " fill-opacity="1" fill-rule="nonzero"/></g></g></g></g></g></g><g clip-path="url(#8bec859f3c)"><path fill="#000000" d="M 521.929688 506.316406 C 522.179688 442.066406 470.425781 389.761719 406.242188 389.46875 L 405.238281 622.199219 C 469.378906 622.449219 521.636719 570.605469 521.929688 506.316406 Z M 521.929688 506.316406 " fill-opacity="1" fill-rule="nonzero"/></g></svg>